<svg xmlns="http://www.w3.org/2000/svg" data-name="Livello 1" viewBox="0 0 59.42 109.7625" x="0px" y="0px"><title>mark pointer2</title><path fill="blue" d="M50,5.16h0A29.72,29.72,0,0,0,23.81,48.9l.91,1.57L47.19,89.38a3.25,3.25,0,0,0,5.62,0L75.29,50.47l.91-1.57A29.71,29.71,0,0,0,50,5.16Zm0,49.49a20,20,0,1,1,20-20A20,20,0,0,1,50,54.65Z" transform="translate(-20.29 -5.16)"/><path fill="blue" d="M42.47,87.09c-11.36.36-19.68,1.52-19.68,2.9s10,2.76,23.08,3Z" transform="translate(-20.29 -5.16)"/><path fill="blue" d="M57.53,87.09,54.14,93c13.07-.22,23.08-1.47,23.08-3S68.9,87.45,57.53,87.09Z" transform="translate(-20.29 -5.16)"/></svg>